# AST/ASF file generated using VICON BodyLanguage
# -----------------------------------------------
:version 1.10
:name VICON
:units
  mass 1.0
  length 0.45
  angle deg
:documentation
   .ast/.asf automatically generated from VICON data using
   VICON BodyBuilder and BodyLanguage model FoxedUp or BRILLIANT.MOD
:root
   order TX TY TZ RX RY RZ
   axis XYZ
   position 0 0 0  
   orientation 0 0 0 
:bonedata
  begin
     id 1 
     name lhipjoint
     direction 0.522423 -0.726805 0.445902 
     length 2.25074 
     axis 0 0 0  XYZ
  end
  begin
     id 2 
     name lfemur
     direction 0.34202 -0.939693 0  
     length 6.54609  
     axis 0 0 20  XYZ
    dof rx ry rz
    limits (-160.0 20.0)
           (-70.0 70.0)
           (-60.0 70.0)
  end
  begin
     id 3 
     name ltibia
     direction 0.34202 -0.939693 0   
     length 7.7528   
     axis 0 0 20   XYZ
    dof rx
    limits (-10.0 170.0)
  end
  begin
     id 4 
     name lfoot
     direction 0.143696 -0.394801 0.90746   
     length 1.73269   
     axis -90 7.62852e-016 20   XYZ
    dof rx rz
    limits (-45.0 90.0)
           (-70.0 20.0)
  end
  begin
     id 5 
     name ltoes
     direction 1.53633e-011 -4.21912e-011 1   
     length 0.858383   
     axis -90 7.62852e-016 20   XYZ
    dof rx
    limits (-90.0 20.0)
  end
  begin
     id 6 
     name rhipjoint
     direction -0.515943 -0.73016 0.447961   
     length 2.2404  
     axis 0 0 0  XYZ 
  end
  begin
     id 7 
     name rfemur
     direction -0.34202 -0.939693 0   
     length 6.84377   
     axis 0 0 -20   XYZ
    dof rx ry rz
    limits (-160.0 20.0)
           (-70.0 70.0)
           (-70.0 60.0)
  end
  begin
     id 8 
     name rtibia
     direction -0.34202 -0.939693 0   
     length 7.57596   
     axis 0 0 -20   XYZ
    dof rx
    limits (-10.0 170.0)
 end
 begin
     id 9 
     name rfoot
     direction -0.0999372 -0.274575 0.956358   
     length 1.78783  
     axis -90 -7.62852e-016 -20   XYZ
    dof rx rz
    limits (-45.0 90.0)
           (-20.0 70.0)
  end
  begin
     id 10 
     name rtoes
     direction -1.53535e-011 -4.21895e-011 1   
     length 0.898614   
     axis -90 -7.62852e-016 -20   XYZ
    dof rx
    limits (-90.0 20.0)
  end
  begin
     id 11 
     name lowerback
     direction -0.011775 0.996164 -0.0867116   
     length 1.91499   
     axis 0 0 0   XYZ
    dof rx ry rz
    limits (-20.0 45.0)
           (-30.0 30.0)
           (-30.0 30.0)
  end
  begin
     id 12 
     name upperback
     direction -0.00189771 0.999673 -0.0254833   
     length 1.92213   
     axis 0 0 0   XYZ
    dof rx ry rz
    limits (-20.0 45.0)
           (-30.0 30.0)
           (-30.0 30.0)
  end
  begin
     id 13 
     name thorax
     direction 0.00335995 0.999878 0.0152401   
     length 1.93138   
     axis 0 0 0   XYZ
    dof rx ry rz
    limits (-20.0 45.0)
           (-30.0 30.0)
           (-30.0 30.0)
  end
  begin
     id 14 
     name lowerneck
     direction 0.00233191 0.998509 0.0545404   
     length 1.59408   
     axis 0 0 0   XYZ
    dof rx ry rz
    limits (-20.0 45.0)
           (-30.0 30.0)
           (-30.0 30.0)
  end
  begin
     id 15 
     name upperneck
     direction 0.07881 0.9956 -0.0506934   
     length 1.59344   
     axis 0 0 0   XYZ
    dof rx ry rz
    limits (-20.0 45.0)
           (-30.0 30.0)
           (-30.0 30.0)
  end
  begin
     id 16
     name head
     direction 0.0261681 0.999378 -0.0236299  
     length 1.60935  
     axis 0 0 0   XYZ
    dof rx ry rz
    limits (-20.0 45.0)
           (-30.0 30.0)
           (-30.0 30.0)
  end
  begin
     id 17 
     name lclavicle
     direction 0.96643 0.252035 0.0499195  
     length 3.82153  
     axis 0 0 0   XYZ
    dof ry rz
    limits (-20.0 10.0)
           (0.0 20.0)
  end
  begin
     id 18 
     name lhumerus
     direction 1 -4.48967e-011 -2.01614e-018   
     length 4.87796   
     axis 180 -30 -90   XYZ
    dof rx ry rz
    limits (-60.0 90.0)
           (-90.0 90.0)
           (-90.0 90.0)
  end
  begin
     id 19
     name lradius
     direction 1 -4.48958e-011 3.1409e-027   
     length 3.23169   
     axis 180 -30 -90   XYZ
    dof rx
    limits (-10.0 170.0)
  end
  begin
     id 20
     name lwrist
     direction 1 -4.48924e-011 1.0365e-027   
     length 1.61584   
     axis -2.56395e-016 90 90   XYZ
    dof ry
    limits (-180.0 0.0)
 end
  begin
     id 21 
     name lhand
     direction 1 -4.49055e-011 2.09488e-027   
     length 0.731324   
     axis -1.32723e-015 90 90   XYZ
    dof rx rz
    limits (-90.0 90.0)
           (-45.0 45.0)
  end
  begin
     id 22 
     name lfingers
     direction 1 -4.48935e-011 4.14981e-027   
     length 0.589612   
     axis -2.6545e-015 90 90   XYZ
    dof rx
    limits (0.0 90.0)
  end
  begin
     id 23
     name lthumb
     direction 0.707107 -6.35097e-011 0.707107   
     length 0.846569   
     axis -90 45 5.05613e-014   XYZ
    dof rx rz
    limits (-45.0 45.0)
           (-45.0 45.0)
  end
  begin
     id 24 
     name rclavicle
     direction -0.979337 0.201016 0.0221522   
     length 3.73827  
     axis 0 0 0   XYZ 
    dof ry rz
    limits (-10.0 20.0)
           (-20.0 0.0)
  end
  begin
     id 25 
     name rhumerus
     direction -1 -4.48971e-011 1.65907e-027  
     length 4.9143   
     axis 180 30 90   XYZ
    dof rx ry rz
    limits (-90.0 60.0)
           (-90.0 90.0)
           (-90.0 90.0)
  end
  begin
     id 26 
     name rradius
     direction -1 -4.4894e-011 2.17871e-028   
     length 3.29093   
     axis 180 30 90   XYZ
    dof rx
    limits (-10.0 170.0)
  end
  begin
     id 27 
     name rwrist
     direction -1 -4.48971e-011 1.04038e-027   
     length 1.64546   
     axis -2.56395e-016 -90 -90   XYZ
    dof ry
    limits (-180.0 0.0)
  end
  begin
     id 28
     name rhand
     direction -1 -4.49017e-011 2.08843e-027   
     length 0.54512   
     axis -1.32723e-015 -90 -90   XYZ
    dof rx rz
    limits (-90.0 90.0)
           (-45.0 45.0)
  end
  begin
     id 29
     name rfingers
     direction -1 -4.48918e-011 4.1439e-027   
     length 0.43949   
     axis -2.6545e-015 -90 -90   XYZ
    dof rx
    limits (0.0 90.0)
  end
  begin
     id 30
     name rthumb
     direction -0.707107 -6.35065e-011 0.707107   
     length 0.631022   
     axis -90 -45 -5.05613e-014   XYZ
    dof rx rz
    limits (-45.0 45.0)
           (-45.0 45.0)
  end
:hierarchy
  begin
    root lhipjoint rhipjoint lowerback
    lhipjoint lfemur
    lfemur ltibia
    ltibia lfoot
    lfoot ltoes
    rhipjoint rfemur
    rfemur rtibia
    rtibia rfoot
    rfoot rtoes
    lowerback upperback
    upperback thorax
    thorax lowerneck lclavicle rclavicle
    lowerneck upperneck
    upperneck head
    lclavicle lhumerus
    lhumerus lradius
    lradius lwrist
    lwrist lhand lthumb
    lhand lfingers
    rclavicle rhumerus
    rhumerus rradius
    rradius rwrist
    rwrist rhand rthumb
    rhand rfingers
  end

#!OML:ASF H:\BreakDance\Project 1\Capture day 1\Session 1\Male.ASF
:FULLY-SPECIFIED
:DEGREES
80
root 1.55521 14.2686 -1.20602 14.1388 -88.1316 -16.7802
lowerback 9.62936 0.473205 -1.55256
upperback 4.11332 0.345797 -0.48103
thorax -1.13805 0.102988 0.3414
lowerneck -8.36554 -1.90428 -3.3851
upperneck 5.27514 -2.95042 9.65544
head 3.13544 -1.16747 3.32958
rclavicle 5.51627e-015 5.96354e-015
rhumerus 18.9131 4.61365 -77.23
rradius 89.5088
rwrist 6.25357
rhand -2.14384 -51.9698
rfingers 7.12502
rthumb 23.5354 -80.5499
lclavicle 5.51627e-015 5.96354e-015
lhumerus 25.8462 -7.73291 78.7198
lradius 81.7671
lwrist -28.2349
lhand 14.363 -15.6646
lfingers 7.12502
lthumb 39.2517 9.78284
rfemur -36.1619 -20.8345 4.59036
rtibia 69.6674
rfoot -26.9018 0.78371
rtoes -18.4538
lfemur -39.7131 20.569 -6.89119
ltibia 72.4725
lfoot -30.5449 -3.58266
ltoes -18.4661
81
root 1.55729 14.267 -1.20596 14.8137 -88.1434 -17.5142
lowerback 9.71206 0.502454 -1.47102
upperback 4.12426 0.388722 -0.493307
thorax -1.17222 0.124907 0.278022
lowerneck -8.34206 -1.90049 -3.31788
upperneck 5.21984 -2.94167 9.57224
head 3.11205 -1.16669 3.29351
rclavicle -6.4605e-016 -3.97569e-015
rhumerus 18.8477 4.50526 -77.2567
rradius 89.5201
rwrist 6.27048
rhand -2.11813 -52.0017
rfingers 7.12502
rthumb 23.5601 -80.5786
lclavicle -6.4605e-016 -3.97569e-015
lhumerus 25.8305 -7.78584 78.7402
lradius 81.7199
lwrist -28.2843
lhand 14.2319 -15.7578
lfingers 7.12502
lthumb 39.1281 9.72544
rfemur -36.1488 -20.7861 4.58466
rtibia 69.6911
rfoot -26.9004 0.904813
rtoes -17.8439
lfemur -39.6271 20.5892 -6.8352
ltibia 72.4782
lfoot -30.5303 -3.66537
ltoes -18.473
82
root 1.55858 14.262 -1.20585 12.6551 -88.1664 -15.4223
lowerback 9.78388 0.519562 -1.54841
upperback 4.12225 0.402137 -0.497824
thorax -1.2143 0.130834 0.315026
lowerneck -8.25314 -1.9172 -3.3298
upperneck 5.2079 -2.9605 9.54995
head 3.09476 -1.17947 3.28808
rclavicle -1.09332e-015 1.19271e-014
rhumerus 18.8129 4.48603 -77.2666
rradius 89.5366
rwrist 6.26212
rhand -2.00403 -52.0566
rfingers 7.12502
rthumb 23.6695 -80.6194
lclavicle -1.09332e-015 1.19271e-014
lhumerus 25.7336 -7.76539 78.764
lradius 81.6962
lwrist -28.3193
lhand 14.1275 -15.8528
lfingers 7.12502
lthumb 39.0298 9.65868
rfemur -36.1072 -20.8021 4.47456
rtibia 69.7397
rfoot -26.9246 0.90238
rtoes -17.974
lfemur -39.5255 20.5969 -6.87277
ltibia 72.4938
lfoot -30.4401 -4.05849
ltoes -17.3226
83
root 1.5617 14.2587 -1.20472 11.4627 -88.1846 -14.2501
lowerback 9.79649 0.533836 -1.55572
upperback 4.12528 0.419527 -0.512075
thorax -1.2183 0.139404 0.302505
lowerneck -8.24624 -1.93326 -3.38646
upperneck 5.31418 -2.98611 9.57973
head 3.12841 -1.18973 3.30533
rclavicle 9.44227e-016 -7.95139e-015
rhumerus 18.7566 4.44561 -77.2803
rradius 89.5693
rwrist 6.33375
rhand -1.78608 -52.0668
rfingers 7.12502
rthumb 23.8786 -80.6024
lclavicle 9.44227e-016 -7.95139e-015
lhumerus 25.6947 -7.74728 78.8029
lradius 81.6703
lwrist -28.2958
lhand 14.0511 -15.9481
lfingers 7.12502
lthumb 38.9577 9.584
rfemur -36.1172 -20.8006 4.41922
rtibia 69.7885
rfoot -26.9531 0.911053
rtoes -18.0911
lfemur -39.5425 20.6213 -6.91382
ltibia 72.5148
lfoot -30.3763 -4.30804
ltoes -16.6587
84
root 1.56749 14.2563 -1.20451 10.8819 -88.2139 -13.6454
lowerback 9.80113 0.564399 -1.5396
upperback 4.12768 0.460777 -0.530303
thorax -1.21877 0.160146 0.27021
lowerneck -8.34194 -1.92924 -3.36186
upperneck 5.45006 -2.99027 9.54964
head 3.18434 -1.18669 3.29147
rclavicle -2.43511e-015 -6.36111e-015
rhumerus 18.6948 4.37144 -77.2693
rradius 89.6169
rwrist 6.38026
rhand -1.57064 -52.0259
rfingers 7.12502
rthumb 24.0851 -80.5344
lclavicle -2.43511e-015 -6.36111e-015
lhumerus 25.7026 -7.77616 78.857
lradius 81.6819
lwrist -28.2948
lhand 14.0466 -16.033
lfingers 7.12502
lthumb 38.9535 9.50032
rfemur -36.1993 -20.7717 4.42684
rtibia 69.827
rfoot -26.9372 0.813564
rtoes -18.2835
lfemur -39.6299 20.6667 -6.95535
ltibia 72.5318
lfoot -30.4203 -4.19283
ltoes -17.2276
85
root 1.57134 14.2557 -1.20276 6.98618 -88.2377 -9.76308
lowerback 9.82272 0.565271 -1.6723
upperback 4.12898 0.448379 -0.555909
thorax -1.22977 0.152703 0.319521
lowerneck -8.32642 -1.85748 -3.22025
upperneck 5.47918 -2.90133 9.41947
head 3.18045 -1.14441 3.23328
rclavicle -6.90777e-015 3.18055e-015
rhumerus 18.6511 4.42143 -77.2752
rradius 89.6361
rwrist 6.27375
rhand -1.68194 -52.0709
rfingers 7.12502
rthumb 23.9784 -80.5934
lclavicle -6.90777e-015 3.18055e-015
lhumerus 25.6856 -7.74014 78.8812
lradius 81.6703
lwrist -28.282
lhand 14.024 -16.0463
lfingers 7.12502
lthumb 38.9322 9.49317
rfemur -36.2004 -20.8048 4.28619
rtibia 69.834
rfoot -26.9042 0.723772
rtoes -18.6667
lfemur -39.6168 20.6857 -7.10897
ltibia 72.5326
lfoot -30.4808 -3.87635
ltoes -17.8257
86
root 1.57435 14.2576 -1.20164 5.60792 -88.2235 -8.4059
lowerback 9.79064 0.543641 -1.74104
upperback 4.15076 0.414207 -0.543953
thorax -1.18954 0.13427 0.374395
lowerneck -8.17505 -1.79434 -3.15537
upperneck 5.39538 -2.81103 9.3318
head 3.12207 -1.10736 3.20133
rclavicle -1.83876e-015 1.59028e-015
rhumerus 18.6382 4.47841 -77.3064
rradius 89.6295
rwrist 6.3153
rhand -1.6183 -52.0212
rfingers 7.12502
rthumb 24.0394 -80.5356
lclavicle -1.83876e-015 1.59028e-015
lhumerus 25.6895 -7.66096 78.9166
lradius 81.629
lwrist -28.2464
lhand 14.0011 -16.0125
lfingers 7.12502
lthumb 38.9105 9.53311
rfemur -36.182 -20.822 4.21739
rtibia 69.8116
rfoot -26.8819 0.813297
rtoes -18.4363
lfemur -39.5947 20.7082 -7.16808
ltibia 72.5289
lfoot -30.4828 -3.90179
ltoes -17.6486
87
root 1.57871 14.2584 -1.20217 11.3116 -88.1979 -14.1307
lowerback 9.80186 0.517621 -1.55254
upperback 4.16704 0.397228 -0.498346
thorax -1.1777 0.127005 0.317363
lowerneck -8.14151 -1.76347 -3.19154
upperneck 5.40552 -2.76987 9.371
head 3.11799 -1.0869 3.22172
rclavicle 9.93923e-017 1.59028e-015
rhumerus 18.6224 4.4706 -77.3609
rradius 89.6561
rwrist 6.52812
rhand -1.19867 -51.9082
rfingers 7.12502
rthumb 24.4418 -80.3689
lclavicle 9.93923e-017 1.59028e-015
lhumerus 25.733 -7.59069 78.9071
lradius 81.5934
lwrist -28.2707
lhand 14.1008 -16.0033
lfingers 7.12502
lthumb 39.0046 9.51545
rfemur -36.189 -20.7367 4.43113
rtibia 69.7766
rfoot -26.8619 0.797704
rtoes -18.3573
lfemur -39.6056 20.7696 -6.95557
ltibia 72.5419
lfoot -30.5039 -4.1447
ltoes -17.5341
88
root 1.58327 14.2585 -1.20193 18.4032 -88.1001 -21.262
lowerback 9.91795 0.484754 -1.24625
upperback 4.14185 0.380122 -0.46347
thorax -1.26548 0.121945 0.182389
lowerneck -8.17319 -1.74591 -3.20138
upperneck 5.49914 -2.75923 9.44591
head 3.15195 -1.07638 3.24688
rclavicle 2.48481e-016 1.19271e-015
rhumerus 18.5151 4.42635 -77.4373
rradius 89.6877
rwrist 6.63527
rhand -0.988342 -51.7951
rfingers 7.12502
rthumb 24.6434 -80.2285
lclavicle 2.48481e-016 1.19271e-015
lhumerus 25.7348 -7.61447 78.8415
lradius 81.5657
lwrist -28.2798
lhand 14.148 -16.0212
lfingers 7.12502
lthumb 39.0491 9.4848
rfemur -36.1344 -20.71 4.73028
rtibia 69.7475
rfoot -26.8662 0.53783
rtoes -19.2295
lfemur -39.6238 20.7884 -6.66587
ltibia 72.5549
lfoot -30.5021 -4.11424
ltoes -18.1031
89
root 1.58624 14.2579 -1.20088 21.4438 -88.0266 -24.3328
lowerback 9.96974 0.480279 -1.09301
upperback 4.13204 0.38837 -0.426556
thorax -1.30338 0.127525 0.133173
lowerneck -8.14141 -1.76462 -3.17209
upperneck 5.52022 -2.78773 9.42261
head 3.15412 -1.0911 3.23353
rclavicle -2.83268e-015 -1.15295e-014
rhumerus 18.4406 4.37895 -77.4266
rradius 89.6451
rwrist 6.56514
rhand -1.34231 -51.833
rfingers 7.12502
rthumb 24.3041 -80.3123
lclavicle -2.83268e-015 -1.15295e-014
lhumerus 25.6934 -7.67758 78.8586
lradius 81.5662
lwrist -28.2714
lhand 14.1111 -16.0432
lfingers 7.12502
lthumb 39.0143 9.47277
rfemur -36.0779 -20.7355 4.86994
rtibia 69.7354
rfoot -26.8806 0.418778
rtoes -19.629
lfemur -39.6095 20.778 -6.51494
ltibia 72.5672
lfoot -30.5139 -4.15685
ltoes -18.1771
90
root 1.5876 14.2574 -1.19709 19.2964 -88.0611 -22.1967
lowerback 9.95358 0.492416 -1.1394
upperback 4.14546 0.399874 -0.435856
thorax -1.28099 0.132555 0.148522
lowerneck -8.07346 -1.78418 -3.16275
upperneck 5.48222 -2.80949 9.38765
head 3.1322 -1.10548 3.22037
rclavicle 5.71506e-015 -7.95139e-016
rhumerus 18.4331 4.38888 -77.3505
rradius 89.5935
rwrist 6.40868
rhand -1.91385 -52.191
rfingers 7.12502
rthumb 23.756 -80.7426
lclavicle 5.71506e-015 -7.95139e-016
lhumerus 25.6498 -7.69995 78.9062
lradius 81.6041
lwrist -28.2229
lhand 14.1666 -16.068
lfingers 7.12502
lthumb 39.0666 9.43293
rfemur -36.0519 -20.7471 4.73669
rtibia 69.7185
rfoot -26.882 0.606172
rtoes -19.0301
lfemur -39.5617 20.7519 -6.6112
ltibia 72.5762
lfoot -30.5545 -4.27539
ltoes -17.5596
91
root 1.59104 14.2569 -1.19069 18.5534 -88.0712 -21.4519
lowerback 9.97208 0.479858 -1.09666
upperback 4.147 0.386444 -0.444916
thorax -1.28904 0.126244 0.116503
lowerneck -7.99106 -1.76024 -3.28937
upperneck 5.4202 -2.77084 9.52456
head 3.10129 -1.08749 3.28559
rclavicle 3.18055e-015 -2.38542e-015
rhumerus 18.4135 4.44014 -77.2986
rradius 89.6097
rwrist 6.32186
rhand -2.09501 -52.46
rfingers 7.12502
rthumb 23.5823 -81.034
lclavicle 3.18055e-015 -2.38542e-015
lhumerus 25.6129 -7.68539 78.9256
lradius 81.6734
lwrist -28.1986
lhand 14.272 -15.999
lfingers 7.12502
lthumb 39.166 9.47331
rfemur -36.0492 -20.7654 4.65895
rtibia 69.6886
rfoot -26.8428 0.73802
rtoes -18.6314
lfemur -39.5741 20.7277 -6.6811
ltibia 72.5944
lfoot -30.5334 -4.19951
ltoes -17.2728
92
root 1.59469 14.2549 -1.18631 21.4696 -88.025 -24.3848
lowerback 9.98809 0.451025 -0.968058
upperback 4.17495 0.360186 -0.391423
thorax -1.26816 0.113359 0.102307
lowerneck -8.06945 -1.72089 -3.3634
upperneck 5.46204 -2.71435 9.55862
head 3.12446 -1.05659 3.31104
rclavicle 5.56597e-015 -7.95139e-016
rhumerus 18.4751 4.50228 -77.2389
rradius 89.589
rwrist 6.3102
rhand -1.88036 -52.4941
rfingers 7.12502
rthumb 23.7881 -81.0415
lclavicle 5.56597e-015 -7.95139e-016
lhumerus 25.609 -7.61626 78.9368
lradius 81.7243
lwrist -28.3102
lhand 14.3248 -15.9055
lfingers 7.12502
lthumb 39.2157 9.55235
rfemur -36.0522 -20.7759 4.76629
rtibia 69.6568
rfoot -26.7844 0.665393
rtoes -18.813
lfemur -39.6142 20.7449 -6.58179
ltibia 72.6269
lfoot -30.5452 -4.14766
ltoes -17.5376
93
root 1.5962 14.2549 -1.18402 21.7931 -88.0137 -24.7473
lowerback 10.0015 0.436405 -0.928687
upperback 4.20845 0.3431 -0.386288
thorax -1.24046 0.104334 0.0873546
lowerneck -8.22194 -1.71383 -3.27327
upperneck 5.59139 -2.7117 9.42781
head 3.18505 -1.05122 3.25578
rclavicle 4.91992e-015 -6.75868e-015
rhumerus 18.506 4.5066 -77.2447
rradius 89.5351
rwrist 6.40111
rhand -1.58 -52.4161
rfingers 7.12502
rthumb 24.0762 -80.9257
lclavicle 4.91992e-015 -6.75868e-015
lhumerus 25.614 -7.60372 78.8838
lradius 81.7303
lwrist -28.3793
lhand 14.3148 -15.9547
lfingers 7.12502
lthumb 39.2063 9.5059
rfemur -36.0173 -20.7985 4.77122
rtibia 69.6212
rfoot -26.7504 0.592336
rtoes -19.1965
lfemur -39.595 20.7589 -6.57172
ltibia 72.6305
lfoot -30.5469 -4.09313
ltoes -17.832
94
root 1.59807 14.2577 -1.18192 18.1885 -88.0504 -21.1444
lowerback 10.0182 0.429043 -1.02408
upperback 4.20262 0.323062 -0.436147
thorax -1.25566 0.0937934 0.0915749
lowerneck -8.19228 -1.70112 -3.25706
upperneck 5.58104 -2.69703 9.43638
head 3.17603 -1.04441 3.25664
rclavicle 2.43511e-015 9.54166e-015
rhumerus 18.4592 4.49914 -77.2903
rradius 89.5186
rwrist 6.48593
rhand -1.46534 -52.2565
rfingers 7.12502
rthumb 24.1861 -80.7515
lclavicle 2.43511e-015 9.54166e-015
lhumerus 25.5742 -7.63376 78.8003
lradius 81.7374
lwrist -28.307
lhand 14.2629 -15.9383
lfingers 7.12502
lthumb 39.1574 9.53642
rfemur -35.9925 -20.8381 4.60962
rtibia 69.5801
rfoot -26.7229 0.661195
rtoes -19.4195
lfemur -39.5678 20.7418 -6.74092
ltibia 72.5981
lfoot -30.4179 -4.03482
ltoes -17.4802
